<svg xmlns="http://www.w3.org/2000/svg" width="15.998" height="20.004" viewBox="0 0 15.998 20.004"><g transform="translate(-3.523 -2.509)"><path d="M22086.4-8852.618h-10a3,3,0,0,1-3-3v-14a3,3,0,0,1,3-3h10a3,3,0,0,1,3,3v14A3,3,0,0,1,22086.4-8852.618Zm.158-18.677a7.767,7.767,0,0,0-3.771,1.424,18.174,18.174,0,0,0-4.42,4.1,20.221,20.221,0,0,0-3.553,6.789c-.6,2.148-.52,3.855.209,4.686a1.438,1.438,0,0,0,1.131.449c2.156,0,6.115-2.9,9.014-6.613a15.246,15.246,0,0,0,3.047-6.412c.328-1.785.133-3.326-.508-4.021A1.492,1.492,0,0,0,22086.563-8871.295Z" transform="translate(-22069.879 8875.129)" fill="#403f3f"/><circle cx="3" cy="3" r="3" transform="translate(8.523 9.511)" fill="#403f3f"/></g></svg>