<svg xmlns="http://www.w3.org/2000/svg" width="24" height="24" viewBox="0 0 24 24"><g transform="translate(24 24) rotate(180)"><path d="M0,0H24V24H0Z" fill="none"/><path d="M18117,21192a10,10,0,1,1,10-10A10.011,10.011,0,0,1,18117,21192Zm-1.006-12.957v0a3.062,3.062,0,0,1-1.432,2.309l0,0a3.451,3.451,0,0,0-1.574,2.666,4.01,4.01,0,0,0,8.02-.031h-2a2.039,2.039,0,0,1-2.006,2.016,2,2,0,0,1-2.006-1.984c0-.889.578-1.336,1.248-1.852a3.576,3.576,0,0,0,1.758-3.127h-2Zm-.031-3.068v2.039h2.063v-2.037h-2.062Z" transform="translate(-18105 -21170)" fill="#403f3f"/></g></svg>