<svg xmlns="http://www.w3.org/2000/svg" width="208.145" height="41.567" viewBox="0 0 208.145 41.567"><g transform="translate(-46.91 -46.774)"><g transform="translate(46.91 46.774)"><path d="M0-178.058a20.79,20.79,0,0,0,20.367,20.783v-7.349s0-.135-.018-.351c-.011-.147-.03-.332-.06-.539a6.58,6.58,0,0,0-.24-1.08,4.159,4.159,0,0,0-.165-.434,2.543,2.543,0,0,0-.5-.773l-1.552-1.552-1.209-1.21-.709-.709.9-.9,2.569-2.569a4.7,4.7,0,0,0,.986-3.318,4.694,4.694,0,0,0-.986-3.317l-2.569-2.57-.9-.9,3.39-3.39.081-.081a2.049,2.049,0,0,0,.255-.32c.03-.046.061-.091.089-.139a4.746,4.746,0,0,0,.5-1.447,7.985,7.985,0,0,0,.141-1.27v-7.349A20.79,20.79,0,0,0,0-178.058" transform="translate(0 198.842)" fill="#fff"/></g><g transform="translate(69.091 46.775)"><path d="M-163.175-141.457l-3.471-3.471.9-.9,2.569-2.57a3.593,3.593,0,0,0,.731-1.442A20.8,20.8,0,0,0-182.221-165.7v7.349s0,.174.026.44a7.832,7.832,0,0,0,.187,1.155,3.41,3.41,0,0,0,.773,1.581l3.471,3.471-.477.477-.424.424-.03.03-2.539,2.539a4.7,4.7,0,0,0-.986,3.317,4.7,4.7,0,0,0,.986,3.318l2.57,2.569.3.3.6.6-.646.646-2.825,2.825a4.468,4.468,0,0,0-.935,2.493c-.02.175-.033.325-.04.441-.01.15-.011.242-.011.242v7.349a20.8,20.8,0,0,0,19.781-15.881,3.248,3.248,0,0,0-.735-1.439" transform="translate(182.221 165.704)" fill="#fff"/></g><g transform="translate(0 3.56)"><g transform="translate(99.33 56.686)"><path d="M-5.766-28.882H-.3v1.707H-5.766v5.25H.185v1.707h-7.81V-35.533H.185v1.707H-5.766Z" transform="translate(7.625 35.533)" fill="#fff"/></g><g transform="translate(110.509 56.686)"><path d="M-13.715,15.315-18.138,0h1.991l3.524,12.951h.086L-9.011,0h1.968l-4.42,15.315Z" transform="translate(18.138)" fill="#fff"/></g><g transform="translate(122.959 56.686)"><path d="M-18.051-48.2l-2.21,6.915h4.508l-2.21-6.915Zm-2.668,8.643-1.2,3.807h-1.948l5.055-15.315H-17.2l5.077,15.315h-1.97l-1.2-3.807Z" transform="translate(23.871 51.063)" fill="#fff"/></g><g transform="translate(138.735 56.686)"><path d="M0-62.813H1.422L8.575-51.3h.111V-62.813h1.75V-47.5H8.817L1.859-58.81H1.751V-47.5H0Z" transform="translate(0 62.813)" fill="#fff"/></g><g transform="translate(154.641 56.686)"><path d="M-5.763,6.6h2.539C.145,6.6.868,3.629.868.545.868-2.256.145-5.3-3.224-5.3H-5.763ZM-7.621-7h4.7C.6-7,2.771-4.6,2.771.611c0,4.746-2.167,7.7-5.186,7.7H-7.621Z" transform="translate(7.621 7.004)" fill="#fff"/></g><g transform="translate(169.323 56.51)"><path d="M-25.713-12.342v-4.681c0-2.364-.853-3.72-3.214-3.72s-3.217,1.356-3.217,3.72v4.681c0,2.363.853,3.719,3.217,3.719s3.214-1.356,3.214-3.719M-34-12.124v-5.12c0-3.193,1.663-5.273,5.077-5.273s5.076,2.08,5.076,5.273v5.12c0,3.2-1.665,5.272-5.076,5.272S-34-8.929-34-12.124" transform="translate(34.004 22.517)" fill="#fff"/></g><g transform="translate(190.883 56.216)"><path d="M-18.117,1.027l-3.982-7.9h-.108v10.7h-1.751V-11.488H-22.6l4.922,9.625,4.9-9.625H-11.4V3.828H-13.15v-10.7h-.109l-3.982,7.9Z" transform="translate(23.958 11.488)" fill="#fff"/></g><g transform="translate(208.912 56.215)"><rect width="1.859" height="15.315" transform="translate(0 0)" fill="#fff"/></g><g transform="translate(216.24 56.215)"><path d="M-5.772-23.969h2.494c1.991,0,3.129-.767,3.129-2.954,0-2.343-1.183-2.952-3.37-2.952H-5.772Zm-1.861-7.614h4.246c3.194,0,5.142,1.268,5.142,4.66,0,3.041-1.773,4.026-2.867,4.375l3.281,6.28H.069l-3.019-6H-5.772v6H-7.633Z" transform="translate(7.633 31.583)" fill="#fff"/></g><g transform="translate(230.484 56.215)"><path d="M-5.766-23.969h2.494c1.991,0,3.129-.767,3.129-2.954,0-2.343-1.182-2.952-3.369-2.952H-5.766Zm-1.859-7.614h4.246c3.192,0,5.14,1.268,5.14,4.66,0,3.041-1.771,4.026-2.864,4.375l3.28,6.28H.076l-3.019-6H-5.766v6H-7.625Z" transform="translate(7.625 31.583)" fill="#fff"/></g><g transform="translate(243.305 56.216)"><path d="M-18.051-48.2l-2.211,6.915h4.509L-17.963-48.2Zm-2.669,8.643-1.2,3.807h-1.948l5.054-15.315H-17.2l5.076,15.315h-1.969l-1.2-3.807Z" transform="translate(23.871 51.063)" fill="#fff"/></g></g><g transform="translate(66.465 56.84)"><path d="M0-.279l.081.04C.112-.286.142-.331.171-.379.116-.347.063-.319.008-.285L0-.279" transform="translate(0 0.379)" fill="#004a98"/></g><g transform="translate(65.451 79.022)"><path d="M0-2.85l.015,0c.557.149,1.139.269,1.733.367a6.633,6.633,0,0,0-.24-1.081c-.248.126-.5.255-.744.372C.577-3.095.3-2.975,0-2.85" transform="translate(0 3.558)" fill="#fff"/></g><g transform="translate(58.628 49.628)"><path d="M-37.009-42.019a4.057,4.057,0,0,0-2.132,1.078,10.441,10.441,0,0,0-2.188,3.4q.453.007.923.033a10.921,10.921,0,0,1,1.8-2.379,3.69,3.69,0,0,1,1.937-.979,11.693,11.693,0,0,1,3.984.166v-.935a10.478,10.478,0,0,0-4.329-.388" transform="translate(41.329 42.109)" fill="#177aba"/></g><g transform="translate(56.74 56.537)"><path d="M-27.866-10.076a12.343,12.343,0,0,1-1.883-3.642q-.211-.615-.386-1.285a19.66,19.66,0,0,1-.6-6.142,19.5,19.5,0,0,1,1.313-5.922c-.222.014-.439.032-.653.052a28.071,28.071,0,0,0-.989,5.944,26.8,26.8,0,0,0,.525,7.478,16.651,16.651,0,0,0,.582,2,9.387,9.387,0,0,0,1.408,2.648,4.2,4.2,0,0,0,2.271,1.411,9.99,9.99,0,0,0,3.156.189l-1.209-1.209A11.359,11.359,0,0,1-25.805-8.8a3.807,3.807,0,0,1-2.061-1.281" transform="translate(31.119 27.067)" fill="#177aba"/></g><g transform="translate(51.36 54.755)"><path d="M-120.849,6.666l-.015,0c.3-.125.577-.244.764-.336.247-.117.5-.246.744-.372a4.161,4.161,0,0,0-.165-.434c-.458.212-.919.4-1.379.567,0,0-.358.134-.891.3h0a15.412,15.412,0,0,1-5.114-2.741A3.908,3.908,0,0,1-128.2,1.562a8.779,8.779,0,0,1-.169-1.115q-.446-1.278-.8-2.717a11.236,11.236,0,0,0-.132,4.543,4.3,4.3,0,0,0,1.418,2.293,12.133,12.133,0,0,0,4.516,2.219l.037.009a10.293,10.293,0,0,1-1.178.189,14.291,14.291,0,0,1-4.468-.014,3.8,3.8,0,0,1-2.134-1.15c-1.745-1.927-3.529-6.08-3.52-10.87.01-4.812,1.822-8.94,3.588-10.848a3.7,3.7,0,0,1,1.874-1.1,7.591,7.591,0,0,1,.841-.145c.233-.028.479-.048.733-.06a16.853,16.853,0,0,1,5.785.873s.229.068.564.185l-.005,0a25.485,25.485,0,0,0-5.012,6.406,28.646,28.646,0,0,0-2.109,4.606q.157.545.327,1.072a19.523,19.523,0,0,1,2.109-5.6,18.659,18.659,0,0,1,5.572-6.146l.009-.006c.082.034.166.076.249.112l.081-.081a2.1,2.1,0,0,0,.255-.32l-.082-.04.008-.005c.055-.034.108-.062.162-.095a4.715,4.715,0,0,0,.5-1.447,12.7,12.7,0,0,0-1.579,1.116l0,0c-.2-.089-.378-.169-.517-.225a19.048,19.048,0,0,0-5.792-1.5q-.435-.031-.844-.028a7.494,7.494,0,0,0-1.668.184,4.063,4.063,0,0,0-2.063,1.208c-1.945,2.1-3.3,6.666-3.309,11.965-.01,5.275,1.313,9.829,3.235,11.951a4.188,4.188,0,0,0,2.35,1.266,13.739,13.739,0,0,0,6.6-.846s.327-.124.758-.292l.03.007a25.117,25.117,0,0,0,2.928.442c-.011-.147-.03-.332-.06-.538-.594-.1-1.176-.217-1.733-.367" transform="translate(134.955 18.314)" fill="#177aba"/></g><g transform="translate(69.091 50.695)"><path d="M-100.749-52.486q-.037.108-.079.212a.138.138,0,0,1-.013.017c-.052.117-.107.237-.166.359a16.6,16.6,0,0,1-3.44,4.611q-.564.89-1.274,1.8a19.942,19.942,0,0,0,5.353-4.824c.135-.186.258-.371.374-.554a8.357,8.357,0,0,0,.577-1.078.135.135,0,0,0,.013-.019c1.508-3.724-1.683-8.106-7.647-12.145a26.6,26.6,0,0,0-5.46-2.86v.8a19.2,19.2,0,0,1,5.222,2.46c5.3,3.591,7.725,7.873,6.537,11.224" transform="translate(112.508 66.967)" fill="#177aba"/></g><g transform="translate(69.102 67.309)"><path d="M-105.383-19.1a.133.133,0,0,0,.021-.01c2.327-2.076,2.254-5.816.4-10.371-.127.2-.262.393-.4.591,1.245,3.868.859,7.075-1.137,8.854-.006,0-.013.006-.018.01a16.822,16.822,0,0,1-10.34,3.574c-.263,0-.523-.016-.782-.028-.02.174-.033.325-.04.44.282.008.561.021.848.021,4.964,0,9.274-1.248,11.452-3.081" transform="translate(117.683 29.479)" fill="#177aba"/></g><g transform="translate(69.117 54.474)"><path d="M-15.745-87.554c2.465.758,6.171,3.582,8.532,7.749q.469.828.855,1.635.11-.23.206-.454a.164.164,0,0,0,.022-.028l.025-.066q-.34-.66-.723-1.334c-2.6-4.589-6.007-7.86-8.72-8.694a4.268,4.268,0,0,0-2.035-.08,7.711,7.711,0,0,0,.187,1.155,4.007,4.007,0,0,1,1.651.118" transform="translate(17.583 88.916)" fill="#177aba"/></g><g transform="translate(72.616 61.247)"><path d="M0-126.7c2.6,2.588,3.654,5.367,2.843,7.774a.057.057,0,0,1-.011.017A15.046,15.046,0,0,1,.85-115.329c-.163.223-.34.446-.52.669l.6.6-.646.646a19.784,19.784,0,0,0,2.273-2.376,13.658,13.658,0,0,0,.925-1.307,9,9,0,0,0,.791-1.591.147.147,0,0,0,.012-.02c.922-2.737-.608-5.663-3.832-8.451l-.424.424Z" transform="translate(0 127.158)" fill="#177aba"/></g><g transform="translate(66.795 73.74)"><path d="M-57.844-44.172l-.6-.6c-.037.046-.07.092-.107.138a17.4,17.4,0,0,1-4.609,3.96c-.473.277-.953.525-1.436.747a4.392,4.392,0,0,1,.164.431v0c.5-.255,1-.522,1.506-.817A27.483,27.483,0,0,0-58.514-43.5l.024-.024Z" transform="translate(64.596 44.771)" fill="#177aba"/></g><g transform="translate(66.582 57.231)"><path d="M-4.149-42.725q-.242.154-.484.315a18.627,18.627,0,0,1,1.748.912A21.836,21.836,0,0,1,1.4-38.259l0,0,.03-.03.422-.422a31.267,31.267,0,0,0-4.524-3.2c-.492-.291-.986-.563-1.477-.817" transform="translate(4.633 42.725)" fill="#177aba"/></g><g transform="translate(63.534 73.497)"><path d="M-77.884-26.446a17.523,17.523,0,0,1-9.091,1.555l1.206,1.206,0,0a22.6,22.6,0,0,0,7.287-2.005q.307-.38.595-.759" transform="translate(86.975 26.446)" fill="#177aba"/></g><g transform="translate(67.277 50.104)"><path d="M0-3.369a18.023,18.023,0,0,1,1.814.45v-.8Q.881-4.068,0-4.3Z" transform="translate(0 4.304)" fill="#177aba"/></g><g transform="translate(67.2 80.1)"><path d="M-16.634-4.01a16.878,16.878,0,0,1-1.942-.206c.029.2.048.389.059.535a.01.01,0,0,1,0,0c.6.057,1.216.091,1.843.108v0c.007-.115.02-.265.04-.438" transform="translate(18.575 4.217)" fill="#177aba"/></g><g transform="translate(66.632 54.561)"><path d="M-4.309-13.024a4.712,4.712,0,0,1-.5,1.442l0,.006a10.025,10.025,0,0,1,2.162-1.006,2.909,2.909,0,0,1,.511-.118v0a7.807,7.807,0,0,1-.186-1.151,3.123,3.123,0,0,0-.345.08,7.707,7.707,0,0,0-1.637.751" transform="translate(4.813 13.854)" fill="#177aba"/></g></g></svg>