<svg xmlns="http://www.w3.org/2000/svg" width="138.248" height="67.489" viewBox="0 0 138.248 67.489"><g transform="translate(-46.91 -46.774)"><g transform="translate(46.91 46.774)"><path d="M0-165.1a33.755,33.755,0,0,0,33.068,33.745v-11.932s0-.218-.029-.569c-.018-.238-.049-.54-.1-.875a10.683,10.683,0,0,0-.39-1.754,6.751,6.751,0,0,0-.269-.7,4.129,4.129,0,0,0-.815-1.254l-2.519-2.519-1.964-1.964-1.152-1.152,1.463-1.462,4.171-4.171s1.6-1.544,1.6-5.387-1.6-5.386-1.6-5.386L27.3-174.655l-1.463-1.462,5.5-5.5.132-.132a3.329,3.329,0,0,0,.414-.519c.049-.074.1-.148.144-.226a7.706,7.706,0,0,0,.812-2.349,12.965,12.965,0,0,0,.228-2.062v-11.932A33.755,33.755,0,0,0,0-165.1" transform="translate(0 198.842)" fill="#177aba"/></g><g transform="translate(82.923 46.775)"><path d="M-151.3-126.336l-5.635-5.635,1.463-1.463,4.171-4.172a5.834,5.834,0,0,0,1.187-2.341,33.768,33.768,0,0,0-32.11-25.758v11.932s0,.282.042.715a12.722,12.722,0,0,0,.3,1.875,5.537,5.537,0,0,0,1.254,2.567l5.635,5.635-.774.774-.688.689-.049.048-4.123,4.123s-1.6,1.544-1.6,5.386,1.6,5.387,1.6,5.387l4.172,4.171.488.488.974.975-1.049,1.049-4.586,4.587a7.255,7.255,0,0,0-1.517,4.047c-.033.284-.053.528-.064.716-.016.244-.018.393-.018.393v11.932A33.77,33.77,0,0,0-150.1-124a5.274,5.274,0,0,0-1.193-2.336" transform="translate(182.221 165.704)" fill="#164c75"/></g><g transform="translate(129.36 75.249)"><path d="M-6.331-30.9h3.808v1.188H-6.331v3.654h4.142v1.188H-7.625v-10.66h5.436v1.188H-6.331Z" transform="translate(7.625 35.533)" fill="#76858c"/></g><g transform="translate(137.141 75.249)"><path d="M-15.059,10.66-18.138,0h1.386L-14.3,9.014h.06L-11.786,0h1.37l-3.077,10.66Z" transform="translate(18.138)" fill="#76858c"/></g><g transform="translate(145.807 75.249)"><path d="M-19.82-49.068l-1.538,4.813h3.137l-1.538-4.813Zm-1.857,6.016-.839,2.65h-1.356l3.519-10.66h1.126l3.533,10.66h-1.371l-.838-2.65Z" transform="translate(23.871 51.063)" fill="#76858c"/></g><g transform="translate(156.787 75.249)"><path d="M0-62.813H.99L5.969-54.8h.077v-8.01H7.264v10.66H6.137L1.294-60.027H1.219v7.874H0Z" transform="translate(0 62.813)" fill="#76858c"/></g><g transform="translate(167.858 75.249)"><path d="M-6.328,2.468H-4.56c2.345,0,2.848-2.07,2.848-4.217,0-1.949-.5-4.066-2.848-4.066H-6.328ZM-7.621-7h3.274C-1.9-7-.388-5.329-.388-1.7c0,3.3-1.508,5.36-3.61,5.36H-7.621Z" transform="translate(7.621 7.004)" fill="#76858c"/></g><g transform="translate(178.078 75.127)"><path d="M-28.233-15.435v-3.258c0-1.645-.594-2.589-2.237-2.589s-2.239.944-2.239,2.589v3.258c0,1.645.594,2.589,2.239,2.589s2.237-.944,2.237-2.589M-34-15.283v-3.564c0-2.222,1.158-3.67,3.533-3.67s3.533,1.447,3.533,3.67v3.564c0,2.224-1.159,3.669-3.533,3.669S-34-13.059-34-15.283" transform="translate(34.004 22.517)" fill="#76858c"/></g><g transform="translate(129.36 98.824)"><path d="M-19.892-2.777l-2.772-5.5h-.075V-.828h-1.219v-10.66h.944l3.426,6.7,3.412-6.7h.959V-.828h-1.218V-8.275h-.076l-2.772,5.5Z" transform="translate(23.958 11.488)" fill="#76858c"/></g><g transform="translate(141.909 98.824)"><rect width="1.294" height="10.66" transform="translate(0 0)" fill="#76858c"/></g><g transform="translate(147.009 98.824)"><path d="M-6.338-26.284H-4.6c1.386,0,2.178-.534,2.178-2.056,0-1.631-.823-2.055-2.345-2.055H-6.338Zm-1.3-5.3h2.955c2.223,0,3.579.882,3.579,3.244a2.851,2.851,0,0,1-2,3.045l2.284,4.371H-2.272l-2.1-4.173H-6.338v4.173h-1.3Z" transform="translate(7.633 31.583)" fill="#76858c"/></g><g transform="translate(156.924 98.824)"><path d="M-6.331-26.284H-4.6c1.386,0,2.178-.534,2.178-2.056,0-1.631-.822-2.055-2.345-2.055H-6.331Zm-1.294-5.3H-4.67c2.222,0,3.577.882,3.577,3.244A2.85,2.85,0,0,1-3.086-25.3L-.8-20.924H-2.265l-2.1-4.173H-6.331v4.173H-7.625Z" transform="translate(7.625 31.583)" fill="#76858c"/></g><g transform="translate(165.847 98.824)"><path d="M-19.82-49.068l-1.539,4.813h3.138l-1.539-4.813Zm-1.858,6.016-.838,2.65h-1.356l3.518-10.66h1.127l3.533,10.66h-1.37l-.838-2.65Z" transform="translate(23.871 51.063)" fill="#76858c"/></g><g transform="translate(78.66 63.118)"><path d="M0-.217l.132.064c.05-.074.1-.148.145-.226C.188-.326.1-.281.013-.226L0-.217" transform="translate(0 0.379)" fill="#004a98"/></g><g transform="translate(77.014 99.133)"><path d="M0-2.408.025-2.4c.9.243,1.849.436,2.814.6a10.769,10.769,0,0,0-.39-1.754c-.4.205-.806.414-1.208.6-.3.148-.751.342-1.241.546" transform="translate(0 3.558)" fill="#004a98"/></g><g transform="translate(65.936 51.408)"><path d="M-34.315-41.963a6.586,6.586,0,0,0-3.461,1.751,16.952,16.952,0,0,0-3.553,5.527q.736.012,1.5.054a17.732,17.732,0,0,1,2.93-3.863,5.991,5.991,0,0,1,3.145-1.589,18.984,18.984,0,0,1,6.468.269v-1.519a17.011,17.011,0,0,0-7.028-.631" transform="translate(41.329 42.109)" fill="#164c75"/></g><g transform="translate(62.87 62.626)"><path d="M-25.838.519a20.04,20.04,0,0,1-3.057-5.913q-.343-1-.627-2.086a31.92,31.92,0,0,1-.967-9.972,31.657,31.657,0,0,1,2.132-9.615c-.361.023-.713.052-1.061.085a45.577,45.577,0,0,0-1.605,9.651,43.506,43.506,0,0,0,.852,12.142,27.034,27.034,0,0,0,.945,3.253,15.241,15.241,0,0,0,2.285,4.3,6.812,6.812,0,0,0,3.687,2.292,16.22,16.22,0,0,0,5.124.308L-20.093,3a18.443,18.443,0,0,1-2.4-.4A6.18,6.18,0,0,1-25.838.519" transform="translate(31.119 27.067)" fill="#164c75"/></g><g transform="translate(54.136 59.733)"><path d="M-112.052,22.244l-.025-.008c.49-.2.938-.4,1.241-.546.4-.19.8-.4,1.208-.6a6.754,6.754,0,0,0-.269-.7c-.744.344-1.493.651-2.239.921,0,0-.581.218-1.446.485h-.007a25.023,25.023,0,0,1-8.3-4.45,6.344,6.344,0,0,1-2.091-3.379,14.254,14.254,0,0,1-.275-1.811q-.723-2.075-1.3-4.412a18.243,18.243,0,0,0-.214,7.376,6.989,6.989,0,0,0,2.3,3.722,19.7,19.7,0,0,0,7.332,3.6l.06.015a16.713,16.713,0,0,1-1.913.308,23.2,23.2,0,0,1-7.255-.023,6.17,6.17,0,0,1-3.466-1.867c-2.833-3.128-5.73-9.871-5.716-17.648.016-7.813,2.959-14.515,5.825-17.613a6,6,0,0,1,3.043-1.782,12.325,12.325,0,0,1,1.365-.236c.379-.045.777-.078,1.191-.1a27.363,27.363,0,0,1,9.393,1.418s.372.111.916.3l-.008.008a41.378,41.378,0,0,0-8.137,10.4A46.509,46.509,0,0,0-124.266,3.1q.255.886.531,1.74a31.7,31.7,0,0,1,3.425-9.085,30.3,30.3,0,0,1,9.047-9.978l.015-.01c.134.056.269.123.4.182l.132-.132a3.4,3.4,0,0,0,.414-.519l-.133-.064.013-.008c.089-.055.175-.1.264-.154a7.655,7.655,0,0,0,.812-2.349,20.614,20.614,0,0,0-2.564,1.812l0,0c-.318-.144-.614-.275-.839-.366a30.927,30.927,0,0,0-9.4-2.44q-.706-.05-1.37-.046a12.167,12.167,0,0,0-2.708.3,6.6,6.6,0,0,0-3.35,1.962c-3.157,3.413-5.356,10.824-5.373,19.427-.017,8.565,2.132,15.959,5.252,19.4a6.8,6.8,0,0,0,3.816,2.056c2.785.522,6.565.04,10.711-1.374,0,0,.532-.2,1.231-.474.017,0,.033.008.049.011a40.78,40.78,0,0,0,4.753.718c-.018-.238-.049-.54-.1-.874-.964-.16-1.909-.353-2.814-.6" transform="translate(134.955 18.314)" fill="#164c75"/></g><g transform="translate(82.924 53.141)"><path d="M-93.415-43.456q-.06.175-.128.344a.225.225,0,0,1-.021.028c-.084.19-.173.385-.27.583a26.952,26.952,0,0,1-5.585,7.486q-.915,1.445-2.069,2.922A32.378,32.378,0,0,0-92.8-39.923c.218-.3.419-.6.607-.9a13.568,13.568,0,0,0,.938-1.75.221.221,0,0,0,.022-.03c2.448-6.046-2.732-13.161-12.415-19.718a43.182,43.182,0,0,0-8.864-4.644v1.293a31.171,31.171,0,0,1,8.479,3.994c8.61,5.831,12.542,12.783,10.614,18.224" transform="translate(112.508 66.967)" fill="#177aba"/></g><g transform="translate(82.941 80.114)"><path d="M-97.712-12.624a.216.216,0,0,0,.034-.016c3.779-3.37,3.66-9.443.645-16.839-.206.319-.425.639-.652.96,2.021,6.281,1.394,11.488-1.846,14.376-.009.006-.021.009-.03.016a27.313,27.313,0,0,1-16.788,5.8c-.428,0-.849-.025-1.27-.045-.033.283-.054.528-.065.715.458.013.911.035,1.377.035,8.059,0,15.058-2.026,18.594-5" transform="translate(117.683 29.479)" fill="#177aba"/></g><g transform="translate(82.966 59.276)"><path d="M-14.6-86.7c4,1.23,10.019,5.815,13.852,12.581Q.014-72.779.641-71.469q.178-.373.335-.737a.266.266,0,0,0,.035-.046c.014-.035.027-.071.041-.107Q.5-73.43-.121-74.525c-4.222-7.451-9.753-12.762-14.158-14.116a6.93,6.93,0,0,0-3.3-.129,12.521,12.521,0,0,0,.3,1.875A6.507,6.507,0,0,1-14.6-86.7" transform="translate(17.583 88.916)" fill="#177aba"/></g><g transform="translate(88.647 70.272)"><path d="M0-126.422c4.229,4.2,5.933,8.714,4.616,12.623a.092.092,0,0,1-.018.028,24.429,24.429,0,0,1-3.218,5.819c-.264.361-.552.724-.844,1.085l.975.975L.462-104.842A32.122,32.122,0,0,0,4.153-108.7a22.175,22.175,0,0,0,1.5-2.123,14.61,14.61,0,0,0,1.285-2.583.241.241,0,0,0,.02-.032c1.5-4.444-.986-9.194-6.222-13.721l-.689.689Z" transform="translate(0 127.158)" fill="#177aba"/></g><g transform="translate(79.196 90.556)"><path d="M-53.634-43.8l-.973-.973c-.06.074-.113.15-.174.224a28.251,28.251,0,0,1-7.484,6.429c-.768.45-1.548.852-2.331,1.213a7.131,7.131,0,0,1,.267.7v0c.814-.414,1.629-.848,2.445-1.326a44.621,44.621,0,0,0,7.163-5.185l.038-.038Z" transform="translate(64.596 44.771)" fill="#b6c4c9"/></g><g transform="translate(78.851 63.752)"><path d="M-3.847-42.725q-.392.25-.786.512A30.243,30.243,0,0,1-1.8-40.733a35.453,35.453,0,0,1,6.955,5.259l0,0,.048-.048L5.9-36.21A50.765,50.765,0,0,0-1.449-41.4c-.8-.472-1.6-.914-2.4-1.326" transform="translate(4.633 42.725)" fill="#b6c4c9"/></g><g transform="translate(73.902 90.162)"><path d="M-72.215-26.446a28.451,28.451,0,0,1-14.76,2.524l1.958,1.958,0,.006a36.7,36.7,0,0,0,11.831-3.256q.5-.616.966-1.232" transform="translate(86.975 26.446)" fill="#b6c4c9"/></g><g transform="translate(79.978 52.181)"><path d="M0-2.785a29.263,29.263,0,0,1,2.946.73V-3.348Q1.43-3.921,0-4.3Z" transform="translate(0 4.304)" fill="#b6c4c9"/></g><g transform="translate(79.853 100.882)"><path d="M-15.423-3.882a27.4,27.4,0,0,1-3.152-.335c.047.332.078.632.1.869a.016.016,0,0,1,0,.006c.973.092,1.974.147,2.992.176v0c.011-.186.032-.43.064-.711" transform="translate(18.575 4.217)" fill="#b6c4c9"/></g><g transform="translate(78.931 59.417)"><path d="M-4-12.506a7.65,7.65,0,0,1-.81,2.341l-.006.01A16.277,16.277,0,0,1-1.3-11.787a4.723,4.723,0,0,1,.83-.192l0-.006a12.676,12.676,0,0,1-.3-1.869,5.071,5.071,0,0,0-.561.129A12.513,12.513,0,0,0-4-12.506" transform="translate(4.813 13.854)" fill="#b6c4c9"/></g><g transform="translate(130.043 58.099)"><path d="M0,6.782H.781v-2.7a2.418,2.418,0,0,0,.629.06,2.368,2.368,0,0,0,1.851-.739,2.113,2.113,0,0,0,.467-1.439A1.908,1.908,0,0,0,3.2.559,2.318,2.318,0,0,0,1.5,0,8.226,8.226,0,0,0,0,.129ZM.781.759a2.98,2.98,0,0,1,.737-.07A1.25,1.25,0,0,1,2.947,2.007,1.35,1.35,0,0,1,1.429,3.446a2.361,2.361,0,0,1-.648-.07Z" fill="#177aba"/></g><g transform="translate(135.362 58.148)"><path d="M0,6.732H3.369V6H.781V0H0Z" fill="#177aba"/></g><g transform="translate(139.684 58.148)"><path d="M-17.54-7.865l.647,2.118h.836l-2.067-6.732h-.943l-2.058,6.732h.808l.629-2.118Zm-1.986-.679.593-1.948c.117-.409.216-.819.306-1.218h.018c.09.39.18.789.315,1.228l.593,1.938Z" transform="translate(21.125 12.479)" fill="#177aba"/></g><g transform="translate(144.796 58.148)"><path d="M-9.009,6.732h.791V.74h1.851V0H-10.85V.74h1.841Z" transform="translate(10.85)" fill="#177aba"/></g><g transform="translate(149.36 58.148)"><path d="M-17.54-7.865l.647,2.118h.836l-2.067-6.732h-.943l-2.058,6.732h.808l.629-2.118Zm-1.986-.679.593-1.948c.117-.409.216-.819.306-1.218h.018c.09.39.18.789.315,1.228l.593,1.938Z" transform="translate(21.125 12.479)" fill="#177aba"/></g><g transform="translate(155.857 58.148)"><path d="M0,6.732H.781V3.686H3.073V2.967H.781V.73h2.48V0H0Z" fill="#177aba"/></g><g transform="translate(160.412 58.039)"><path d="M-13.762-40.963c-1.617,0-2.813,1.4-2.813,3.536,0,2.038,1.124,3.416,2.723,3.416,1.546,0,2.813-1.228,2.813-3.546C-11.039-39.554-12.109-40.963-13.762-40.963Zm-.036.709c1.3,0,1.933,1.4,1.933,2.737,0,1.528-.7,2.8-1.941,2.8s-1.932-1.288-1.932-2.727C-15.739-38.925-15.092-40.253-13.8-40.253Z" transform="translate(16.575 40.963)" fill="#177aba"/></g><g transform="translate(167.501 58.099)"><path d="M0,6.782H.781V3.865h.737c.71.03,1.033.38,1.213,1.309a9.445,9.445,0,0,0,.4,1.608h.808a11.619,11.619,0,0,1-.467-1.848,1.668,1.668,0,0,0-.89-1.358v-.03A1.752,1.752,0,0,0,3.729,1.828,1.771,1.771,0,0,0,3.253.549,2.308,2.308,0,0,0,1.5,0,7.353,7.353,0,0,0,0,.139ZM.781.749a2.922,2.922,0,0,1,.773-.08c.827.01,1.393.39,1.393,1.259A1.242,1.242,0,0,1,1.581,3.206h-.8Z" fill="#177aba"/></g><g transform="translate(172.713 58.148)"><path d="M-26.507,6.732h.764L-26.121,0h-1L-28.2,3.256c-.27.849-.485,1.588-.638,2.268h-.027c-.153-.7-.36-1.438-.611-2.268L-30.505,0h-1l-.422,6.732h.746l.161-2.886c.054-1.009.1-2.138.117-2.977h.018c.17.8.413,1.668.7,2.617l.979,3.206h.593l1.07-3.265c.305-.929.556-1.768.764-2.558h.027c-.008.839.045,1.968.09,2.907Z" transform="translate(31.925)" fill="#177aba"/></g><g transform="translate(180.089 58.148)"><path d="M-17.54-7.865l.647,2.118h.836l-2.067-6.732h-.943l-2.058,6.732h.808l.629-2.118Zm-1.986-.679.593-1.948c.117-.409.216-.819.306-1.218h.018c.09.39.18.789.315,1.228l.593,1.938Z" transform="translate(21.125 12.479)" fill="#177aba"/></g></g></svg>